<svg width="519" height="111" viewBox="0 0 519 111" fill="none" xmlns="http://www.w3.org/2000/svg">
<path fill-rule="evenodd" clip-rule="evenodd" d="M17.4663 34.3902C20.0577 33.7822 22.8764 33.3552 25.865 33.1157C24.5485 30.3601 23.487 27.6588 22.705 25.0674C21.4827 21.0174 20.8628 16.9716 21.2102 13.2784C21.5608 9.55222 22.9539 5.79957 26.1202 3.14147C29.2864 0.483377 33.2222 -0.237584 36.9508 0.0640541C40.6464 0.363017 44.5213 1.67634 48.2955 3.5839C55.863 7.40862 64.0165 14.1239 71.2032 22.6928C77.0023 29.6073 81.5041 36.9325 84.3139 43.7699C85.7261 41.3132 87.1629 39.0734 88.5965 37.0953C90.886 33.9363 93.3565 31.1795 95.9184 29.32C98.293 27.5963 102.03 25.7531 106.076 27.2263C110.121 28.6994 111.8 32.5148 112.512 35.3623C113.279 38.4344 113.401 42.135 113.125 46.0273C112.568 53.8896 110.287 63.8609 106.531 74.1841C102.776 84.5074 98.1169 93.6128 93.4923 99.9939C91.2028 103.153 88.7322 105.91 86.1703 107.769C83.7957 109.493 80.0584 111.336 76.013 109.863C71.9676 108.39 70.2889 104.574 69.5773 101.727C68.8094 98.6549 68.688 94.9543 68.9638 91.062C69.259 86.896 70.0382 82.1379 71.2643 77.0491C70.6788 77.2124 70.0853 77.3642 69.4853 77.505C61.2309 79.4418 50.6706 79.541 39.66 77.5986C28.6494 75.6562 18.7599 71.9493 11.6654 67.3048C8.12709 64.9884 5.05288 62.2878 2.94629 59.2352C0.820854 56.1553 -0.522955 52.3847 0.194777 48.3123C0.912509 44.2398 3.46427 41.1565 6.5144 38.9896C9.53747 36.842 13.3495 35.3562 17.4663 34.3902ZM47.2916 34.2965C44.2556 33.761 41.2539 33.3806 38.3253 33.1512C35.9664 29.1377 34.2512 25.2964 33.2231 21.89C32.2569 18.6884 31.9773 16.1343 32.1491 14.3086C32.3177 12.5159 32.8625 11.8309 33.1826 11.5622C33.5026 11.2936 34.2715 10.8757 36.0653 11.0208C37.8923 11.1686 40.3578 11.8876 43.3414 13.3956C49.2896 16.4018 56.3215 22.0502 62.7865 29.7587C66.3248 33.9774 69.2261 38.2564 71.4437 42.3123C64.8052 38.7393 56.4349 35.9095 47.2916 34.2965ZM74.9638 58.9056C75.9533 60.3395 76.0066 61.2053 75.9433 61.6328C75.8042 61.8523 75.6673 61.9943 75.5571 62.0868C75.2371 62.3555 74.4682 62.7733 72.6743 62.6282C70.8474 62.4804 68.3819 61.7614 65.3983 60.2535C60.5326 57.7944 54.9418 53.5672 49.5293 47.8908C48.8032 47.1293 49.4864 45.9432 50.5091 46.19C58.1835 48.0419 64.6837 50.786 69.2702 53.7887C72.0673 55.6198 73.9225 57.3966 74.9638 58.9056ZM37.5365 50.9563C43.5662 58.1457 50.2766 64.0303 56.7504 67.9976C52.134 68.1032 46.9839 67.7286 41.5679 66.7731C31.663 65.0258 23.2577 61.7572 17.6814 58.1065C14.8843 56.2754 13.0291 54.4986 11.9878 52.9896C10.9652 51.5079 10.9425 50.6327 11.015 50.2211C11.0876 49.8095 11.4081 48.9949 12.8755 47.9524C14.37 46.8908 16.7206 45.8559 19.975 45.0924C23.4058 44.2874 27.5434 43.8534 32.1455 43.8816C33.7861 46.2634 35.5881 48.633 37.5365 50.9563ZM85.8821 66.6648C89.3904 57.021 93.6191 48.8913 97.4915 43.5481C98.6417 41.9609 99.6959 40.7101 100.621 39.7656C101.201 39.1741 102.134 39.5139 102.198 40.3398C102.3 41.6583 102.304 43.2945 102.165 45.2501C101.699 51.8335 99.715 60.7807 96.2067 70.4245C92.6983 80.0683 88.4697 88.198 84.5973 93.5412C83.447 95.1283 82.3928 96.3792 81.4675 97.3237C80.888 97.9152 79.9548 97.5754 79.8909 96.7495C79.7888 95.431 79.7849 93.7948 79.9235 91.8392C80.3899 85.2558 82.3737 76.3086 85.8821 66.6648Z" fill="#005A31"/>
<path fill-rule="evenodd" clip-rule="evenodd" d="M17.4663 34.3902C20.0577 33.7822 22.8764 33.3552 25.865 33.1157C24.5485 30.3601 23.487 27.6588 22.705 25.0674C21.4827 21.0174 20.8628 16.9716 21.2102 13.2784C21.5608 9.55222 22.9539 5.79957 26.1202 3.14147C29.2864 0.483377 33.2222 -0.237584 36.9508 0.0640541C40.6464 0.363017 44.5213 1.67634 48.2955 3.5839C55.863 7.40862 64.0165 14.1239 71.2032 22.6928C77.0023 29.6073 81.5041 36.9325 84.3139 43.7699C85.7261 41.3132 87.1629 39.0734 88.5965 37.0953C90.886 33.9363 93.3565 31.1795 95.9184 29.32C98.293 27.5963 102.03 25.7531 106.076 27.2263C110.121 28.6994 111.8 32.5148 112.512 35.3623C113.279 38.4344 113.401 42.135 113.125 46.0273C112.568 53.8896 110.287 63.8609 106.531 74.1841C102.776 84.5074 98.1169 93.6128 93.4923 99.9939C91.2028 103.153 88.7322 105.91 86.1703 107.769C83.7957 109.493 80.0584 111.336 76.013 109.863C71.9676 108.39 70.2889 104.574 69.5773 101.727C68.8094 98.6549 68.688 94.9543 68.9638 91.062C69.259 86.896 70.0382 82.1379 71.2643 77.0491C70.6788 77.2124 70.0853 77.3642 69.4853 77.505C61.2309 79.4418 50.6706 79.541 39.66 77.5986C28.6494 75.6562 18.7599 71.9493 11.6654 67.3048C8.12709 64.9884 5.05288 62.2878 2.94629 59.2352C0.820854 56.1553 -0.522955 52.3847 0.194777 48.3123C0.912509 44.2398 3.46427 41.1565 6.5144 38.9896C9.53747 36.842 13.3495 35.3562 17.4663 34.3902ZM47.2916 34.2965C44.2556 33.761 41.2539 33.3806 38.3253 33.1512C35.9664 29.1377 34.2512 25.2964 33.2231 21.89C32.2569 18.6884 31.9773 16.1343 32.1491 14.3086C32.3177 12.5159 32.8625 11.8309 33.1826 11.5622C33.5026 11.2936 34.2715 10.8757 36.0653 11.0208C37.8923 11.1686 40.3578 11.8876 43.3414 13.3956C49.2896 16.4018 56.3215 22.0502 62.7865 29.7587C66.3248 33.9774 69.2261 38.2564 71.4437 42.3123C64.8052 38.7393 56.4349 35.9095 47.2916 34.2965ZM74.9638 58.9056C75.9533 60.3395 76.0066 61.2053 75.9433 61.6328C75.8042 61.8523 75.6673 61.9943 75.5571 62.0868C75.2371 62.3555 74.4682 62.7733 72.6743 62.6282C70.8474 62.4804 68.3819 61.7614 65.3983 60.2535C60.5326 57.7944 54.9418 53.5672 49.5293 47.8908C48.8032 47.1293 49.4864 45.9432 50.5091 46.19C58.1835 48.0419 64.6837 50.786 69.2702 53.7887C72.0673 55.6198 73.9225 57.3966 74.9638 58.9056ZM37.5365 50.9563C43.5662 58.1457 50.2766 64.0303 56.7504 67.9976C52.134 68.1032 46.9839 67.7286 41.5679 66.7731C31.663 65.0258 23.2577 61.7572 17.6814 58.1065C14.8843 56.2754 13.0291 54.4986 11.9878 52.9896C10.9652 51.5079 10.9425 50.6327 11.015 50.2211C11.0876 49.8095 11.4081 48.9949 12.8755 47.9524C14.37 46.8908 16.7206 45.8559 19.975 45.0924C23.4058 44.2874 27.5434 43.8534 32.1455 43.8816C33.7861 46.2634 35.5881 48.633 37.5365 50.9563ZM85.8821 66.6648C89.3904 57.021 93.6191 48.8913 97.4915 43.5481C98.6417 41.9609 99.6959 40.7101 100.621 39.7656C101.201 39.1741 102.134 39.5139 102.198 40.3398C102.3 41.6583 102.304 43.2945 102.165 45.2501C101.699 51.8335 99.715 60.7807 96.2067 70.4245C92.6983 80.0683 88.4697 88.198 84.5973 93.5412C83.447 95.1283 82.3928 96.3792 81.4675 97.3237C80.888 97.9152 79.9548 97.5754 79.8909 96.7495C79.7888 95.431 79.7849 93.7948 79.9235 91.8392C80.3899 85.2558 82.3737 76.3086 85.8821 66.6648Z" fill="black"/>
<path fill-rule="evenodd" clip-rule="evenodd" d="M135.318 91.238H121.712V18.0014H146.815C163.902 18.0014 174.661 27.1823 174.661 41.9563C174.661 57.4689 162.531 67.8107 144.495 67.8107H135.318V91.238ZM135.318 55.886H146.921C155.57 55.886 160.527 51.4538 160.527 43.6447C160.527 35.4135 154.515 29.9261 145.549 29.9261H135.318V55.886Z" fill="#005A31"/>
<path fill-rule="evenodd" clip-rule="evenodd" d="M135.318 91.238H121.712V18.0014H146.815C163.902 18.0014 174.661 27.1823 174.661 41.9563C174.661 57.4689 162.531 67.8107 144.495 67.8107H135.318V91.238ZM135.318 55.886H146.921C155.57 55.886 160.527 51.4538 160.527 43.6447C160.527 35.4135 154.515 29.9261 145.549 29.9261H135.318V55.886Z" fill="black"/>
<path d="M192.485 91.238H179.089V39.5731H190.078L189.953 49.2377C193.75 43.1171 199.973 39.5291 206.724 39.5291C209.466 39.5291 212.103 40.0568 214.318 40.901L211.154 53.2478C209.255 52.6146 206.829 52.1925 204.614 52.1925C199.903 52.1925 195.555 54.3092 192.485 58.0388V91.238Z" fill="#005A31"/>
<path d="M192.485 91.238H179.089V39.5731H190.078L189.953 49.2377C193.75 43.1171 199.973 39.5291 206.724 39.5291C209.466 39.5291 212.103 40.0568 214.318 40.901L211.154 53.2478C209.255 52.6146 206.829 52.1925 204.614 52.1925C199.903 52.1925 195.555 54.3092 192.485 58.0388V91.238Z" fill="black"/>
<path fill-rule="evenodd" clip-rule="evenodd" d="M238.761 92.2932C254.899 92.2932 265.869 81.3183 265.869 64.8559C265.869 49.1322 255.849 38.896 240.344 38.896C224.1 38.896 213.342 49.8709 213.342 66.4388C213.342 82.057 223.256 92.2932 238.761 92.2932ZM239.922 81.0017C232.011 81.0017 226.948 74.8811 226.948 65.278C226.948 56.0971 231.589 50.293 239.183 50.293C247.094 50.293 252.157 56.5192 252.157 66.1223C252.157 75.3032 247.516 81.0017 239.922 81.0017Z" fill="#005A31"/>
<path fill-rule="evenodd" clip-rule="evenodd" d="M238.761 92.2932C254.899 92.2932 265.869 81.3183 265.869 64.8559C265.869 49.1322 255.849 38.896 240.344 38.896C224.1 38.896 213.342 49.8709 213.342 66.4388C213.342 82.057 223.256 92.2932 238.761 92.2932ZM239.922 81.0017C232.011 81.0017 226.948 74.8811 226.948 65.278C226.948 56.0971 231.589 50.293 239.183 50.293C247.094 50.293 252.157 56.5192 252.157 66.1223C252.157 75.3032 247.516 81.0017 239.922 81.0017Z" fill="black"/>
<path d="M319.305 91.238H305.804V61.479C305.804 54.5141 302.429 50.8206 295.889 50.8206C291.995 50.8206 288.456 52.1701 285.447 54.6359V91.238H272.052V39.5731H285.447V48.4934C290.194 42.6893 293.147 39.107 300.53 39.107C312.133 39.107 319.305 46.9161 319.305 59.685V91.238Z" fill="#005A31"/>
<path d="M319.305 91.238H305.804V61.479C305.804 54.5141 302.429 50.8206 295.889 50.8206C291.995 50.8206 288.456 52.1701 285.447 54.6359V91.238H272.052V39.5731H285.447V48.4934C290.194 42.6893 293.147 39.107 300.53 39.107C312.133 39.107 319.305 46.9161 319.305 59.685V91.238Z" fill="black"/>
<path fill-rule="evenodd" clip-rule="evenodd" d="M349.956 92.2932C366.094 92.2932 377.063 81.3183 377.063 64.8559C377.063 49.1322 367.043 38.896 351.538 38.896C335.295 38.896 324.536 49.8709 324.536 66.4388C324.536 82.057 334.451 92.2932 349.956 92.2932ZM351.116 81.0017C343.205 81.0017 338.142 74.8811 338.142 65.278C338.142 56.0971 342.783 50.293 350.378 50.293C358.289 50.293 363.351 56.5192 363.351 66.1223C363.351 75.3032 358.71 81.0017 351.116 81.0017Z" fill="#005A31"/>
<path fill-rule="evenodd" clip-rule="evenodd" d="M349.956 92.2932C366.094 92.2932 377.063 81.3183 377.063 64.8559C377.063 49.1322 367.043 38.896 351.538 38.896C335.295 38.896 324.536 49.8709 324.536 66.4388C324.536 82.057 334.451 92.2932 349.956 92.2932ZM351.116 81.0017C343.205 81.0017 338.142 74.8811 338.142 65.278C338.142 56.0971 342.783 50.293 350.378 50.293C358.289 50.293 363.351 56.5192 363.351 66.1223C363.351 75.3032 358.71 81.0017 351.116 81.0017Z" fill="black"/>
<path d="M415.249 90.1827C411.874 91.3435 408.182 91.9767 404.596 91.9767C393.205 91.9767 386.349 85.5395 386.349 75.0922V50.7151H377.084V39.9512H386.349V25.0718H399.639V39.9512H412.612V50.7151H399.639V74.3535C399.639 78.6801 402.698 81.5294 407.55 81.5294C409.132 81.5294 411.03 81.2128 412.507 80.5796L415.249 90.1827Z" fill="#005A31"/>
<path d="M415.249 90.1827C411.874 91.3435 408.182 91.9767 404.596 91.9767C393.205 91.9767 386.349 85.5395 386.349 75.0922V50.7151H377.084V39.9512H386.349V25.0718H399.639V39.9512H412.612V50.7151H399.639V74.3535C399.639 78.6801 402.698 81.5294 407.55 81.5294C409.132 81.5294 411.03 81.2128 412.507 80.5796L415.249 90.1827Z" fill="black"/>
<path fill-rule="evenodd" clip-rule="evenodd" d="M443.875 92.2932C449.993 92.2932 456.427 91.1324 462.017 88.8108L459.064 79.4188C454.95 81.1073 450.415 82.057 446.09 82.057C436.826 82.057 431.178 77.7741 429.579 69.3936H462.861C463.178 67.2831 463.389 64.1172 463.389 61.6901C463.389 47.7603 454.845 38.896 441.238 38.896C425.944 38.896 415.713 49.8709 415.713 65.8057C415.713 82.2681 426.366 92.2932 443.875 92.2932ZM450.731 61.1624H429.238C429.977 53.4095 433.863 49.3433 440.289 49.3433C446.934 49.3433 450.731 53.5644 450.731 61.1624Z" fill="#005A31"/>
<path fill-rule="evenodd" clip-rule="evenodd" d="M443.875 92.2932C449.993 92.2932 456.427 91.1324 462.017 88.8108L459.064 79.4188C454.95 81.1073 450.415 82.057 446.09 82.057C436.826 82.057 431.178 77.7741 429.579 69.3936H462.861C463.178 67.2831 463.389 64.1172 463.389 61.6901C463.389 47.7603 454.845 38.896 441.238 38.896C425.944 38.896 415.713 49.8709 415.713 65.8057C415.713 82.2681 426.366 92.2932 443.875 92.2932ZM450.731 61.1624H429.238C429.977 53.4095 433.863 49.3433 440.289 49.3433C446.934 49.3433 450.731 53.5644 450.731 61.1624Z" fill="black"/>
<path d="M498.647 89.2241H487.765V69.3409H468.103V58.7704H487.765V39.0982H498.647V58.7704H518.204V69.3409H498.647V89.2241Z" fill="#005A31"/>
<path d="M498.647 89.2241H487.765V69.3409H468.103V58.7704H487.765V39.0982H498.647V58.7704H518.204V69.3409H498.647V89.2241Z" fill="black"/>
</svg>
