<svg width="53" height="51" viewBox="0 0 53 51" fill="none" xmlns="http://www.w3.org/2000/svg">
<path fill-rule="evenodd" clip-rule="evenodd" d="M8.17083 15.8868C9.3831 15.6059 10.7017 15.4087 12.0997 15.298C11.4839 14.025 10.9873 12.7772 10.6215 11.58C10.0497 9.70913 9.75971 7.84012 9.92225 6.13405C10.0862 4.41271 10.7379 2.67915 12.2191 1.45122C13.7003 0.223299 15.5415 -0.109753 17.2858 0.0295902C19.0146 0.167698 20.8273 0.774395 22.5929 1.65561C26.133 3.42246 29.9472 6.52464 33.3092 10.4831C36.022 13.6773 38.128 17.0612 39.4424 20.2198C40.1031 19.0849 40.7752 18.0502 41.4459 17.1364C42.5169 15.6771 43.6726 14.4036 44.8711 13.5446C45.9819 12.7483 47.7303 11.8968 49.6227 12.5773C51.5152 13.2579 52.3005 15.0204 52.6334 16.3358C52.9926 17.755 53.0494 19.4645 52.9204 21.2626C52.6598 24.8946 51.5927 29.5009 49.8358 34.2698C48.079 39.0387 45.8995 43.2451 43.7361 46.1929C42.6651 47.6522 41.5094 48.9257 40.3109 49.7847C39.2 50.581 37.4517 51.4324 35.5593 50.7519C33.6668 50.0714 32.8815 48.3089 32.5486 46.9934C32.1894 45.5743 32.1326 43.8648 32.2616 42.0667C32.3997 40.1422 32.7642 37.9441 33.3378 35.5933C33.0639 35.6688 32.7862 35.7389 32.5055 35.8039C28.6441 36.6986 23.7039 36.7445 18.5531 35.8472C13.4023 34.9499 8.77596 33.2375 5.45714 31.0919C3.80189 30.0218 2.36376 28.7742 1.37829 27.3641C0.383999 25.9413 -0.244641 24.1995 0.0911176 22.3182C0.426876 20.4369 1.6206 19.0125 3.04746 18.0115C4.46167 17.0194 6.24497 16.333 8.17083 15.8868ZM22.1232 15.8435C20.703 15.5961 19.2988 15.4204 17.9287 15.3144C16.8252 13.4603 16.0229 11.6858 15.5419 10.1122C15.0899 8.63324 14.9591 7.45333 15.0395 6.60993C15.1184 5.78181 15.3733 5.46537 15.523 5.34125C15.6727 5.21713 16.0324 5.0241 16.8715 5.09114C17.7262 5.15941 18.8796 5.49156 20.2753 6.18816C23.0579 7.57693 26.3475 10.1863 29.3718 13.7472C31.027 15.6961 32.3843 17.6728 33.4217 19.5465C30.3162 17.8959 26.4005 16.5886 22.1232 15.8435ZM35.0684 27.2118C35.5313 27.8742 35.5562 28.2742 35.5266 28.4717C35.4616 28.5731 35.3975 28.6387 35.346 28.6814C35.1962 28.8055 34.8366 28.9986 33.9974 28.9315C33.1428 28.8632 31.9894 28.5311 30.5936 27.8345C28.3175 26.6985 25.702 24.7457 23.17 22.1235C22.8303 21.7717 23.15 21.2238 23.6284 21.3378C27.2185 22.1933 30.2594 23.4609 32.4049 24.848C33.7134 25.6939 34.5813 26.5147 35.0684 27.2118ZM17.5598 23.5396C20.3805 26.8608 23.5196 29.5792 26.5481 31.4119C24.3885 31.4607 21.9793 31.2877 19.4457 30.8463C14.8121 30.0391 10.8801 28.5291 8.27143 26.8427C6.96295 25.9968 6.09509 25.176 5.60793 24.4789C5.12958 23.7944 5.11895 23.3901 5.15288 23.2C5.18682 23.0098 5.33677 22.6335 6.02322 22.1519C6.72233 21.6615 7.822 21.1834 9.3444 20.8307C10.9493 20.4588 12.8849 20.2584 15.0378 20.2714C15.8053 21.3717 16.6483 22.4663 17.5598 23.5396ZM40.176 30.7962C41.8173 26.3412 43.7954 22.5856 45.607 20.1173C46.1451 19.3841 46.6382 18.8063 47.0711 18.37C47.3422 18.0967 47.7788 18.2537 47.8086 18.6352C47.8564 19.2443 47.8582 20.0002 47.7934 20.9036C47.5752 23.9448 46.6471 28.078 45.0059 32.533C43.3647 36.9881 41.3865 40.7436 39.575 43.212C39.0369 43.9451 38.5438 44.523 38.1109 44.9593C37.8398 45.2326 37.4032 45.0756 37.3733 44.6941C37.3256 44.0849 37.3238 43.3291 37.3886 42.4257C37.6068 39.3845 38.5348 35.2513 40.176 30.7962Z" fill="black"/>
<path fill-rule="evenodd" clip-rule="evenodd" d="M8.17083 15.8868C9.3831 15.6059 10.7017 15.4087 12.0997 15.298C11.4839 14.025 10.9873 12.7772 10.6215 11.58C10.0497 9.70913 9.75971 7.84012 9.92225 6.13405C10.0862 4.41271 10.7379 2.67915 12.2191 1.45122C13.7003 0.223299 15.5415 -0.109753 17.2858 0.0295902C19.0146 0.167698 20.8273 0.774395 22.5929 1.65561C26.133 3.42246 29.9472 6.52464 33.3092 10.4831C36.022 13.6773 38.128 17.0612 39.4424 20.2198C40.1031 19.0849 40.7752 18.0502 41.4459 17.1364C42.5169 15.6771 43.6726 14.4036 44.8711 13.5446C45.9819 12.7483 47.7303 11.8968 49.6227 12.5773C51.5152 13.2579 52.3005 15.0204 52.6334 16.3358C52.9926 17.755 53.0494 19.4645 52.9204 21.2626C52.6598 24.8946 51.5927 29.5009 49.8358 34.2698C48.079 39.0387 45.8995 43.2451 43.7361 46.1929C42.6651 47.6522 41.5094 48.9257 40.3109 49.7847C39.2 50.581 37.4517 51.4324 35.5593 50.7519C33.6668 50.0714 32.8815 48.3089 32.5486 46.9934C32.1894 45.5743 32.1326 43.8648 32.2616 42.0667C32.3997 40.1422 32.7642 37.9441 33.3378 35.5933C33.0639 35.6688 32.7862 35.7389 32.5055 35.8039C28.6441 36.6986 23.7039 36.7445 18.5531 35.8472C13.4023 34.9499 8.77596 33.2375 5.45714 31.0919C3.80189 30.0218 2.36376 28.7742 1.37829 27.3641C0.383999 25.9413 -0.244641 24.1995 0.0911176 22.3182C0.426876 20.4369 1.6206 19.0125 3.04746 18.0115C4.46167 17.0194 6.24497 16.333 8.17083 15.8868ZM22.1232 15.8435C20.703 15.5961 19.2988 15.4204 17.9287 15.3144C16.8252 13.4603 16.0229 11.6858 15.5419 10.1122C15.0899 8.63324 14.9591 7.45333 15.0395 6.60993C15.1184 5.78181 15.3733 5.46537 15.523 5.34125C15.6727 5.21713 16.0324 5.0241 16.8715 5.09114C17.7262 5.15941 18.8796 5.49156 20.2753 6.18816C23.0579 7.57693 26.3475 10.1863 29.3718 13.7472C31.027 15.6961 32.3843 17.6728 33.4217 19.5465C30.3162 17.8959 26.4005 16.5886 22.1232 15.8435ZM35.0684 27.2118C35.5313 27.8742 35.5562 28.2742 35.5266 28.4717C35.4616 28.5731 35.3975 28.6387 35.346 28.6814C35.1962 28.8055 34.8366 28.9986 33.9974 28.9315C33.1428 28.8632 31.9894 28.5311 30.5936 27.8345C28.3175 26.6985 25.702 24.7457 23.17 22.1235C22.8303 21.7717 23.15 21.2238 23.6284 21.3378C27.2185 22.1933 30.2594 23.4609 32.4049 24.848C33.7134 25.6939 34.5813 26.5147 35.0684 27.2118ZM17.5598 23.5396C20.3805 26.8608 23.5196 29.5792 26.5481 31.4119C24.3885 31.4607 21.9793 31.2877 19.4457 30.8463C14.8121 30.0391 10.8801 28.5291 8.27143 26.8427C6.96295 25.9968 6.09509 25.176 5.60793 24.4789C5.12958 23.7944 5.11895 23.3901 5.15288 23.2C5.18682 23.0098 5.33677 22.6335 6.02322 22.1519C6.72233 21.6615 7.822 21.1834 9.3444 20.8307C10.9493 20.4588 12.8849 20.2584 15.0378 20.2714C15.8053 21.3717 16.6483 22.4663 17.5598 23.5396ZM40.176 30.7962C41.8173 26.3412 43.7954 22.5856 45.607 20.1173C46.1451 19.3841 46.6382 18.8063 47.0711 18.37C47.3422 18.0967 47.7788 18.2537 47.8086 18.6352C47.8564 19.2443 47.8582 20.0002 47.7934 20.9036C47.5752 23.9448 46.6471 28.078 45.0059 32.533C43.3647 36.9881 41.3865 40.7436 39.575 43.212C39.0369 43.9451 38.5438 44.523 38.1109 44.9593C37.8398 45.2326 37.4032 45.0756 37.3733 44.6941C37.3256 44.0849 37.3238 43.3291 37.3886 42.4257C37.6068 39.3845 38.5348 35.2513 40.176 30.7962Z" fill="url(#paint0_linear_142_480)" fill-opacity="0.6"/>
<path fill-rule="evenodd" clip-rule="evenodd" d="M8.17083 15.8868C9.3831 15.6059 10.7017 15.4087 12.0997 15.298C12.0997 15.298 13.8762 15.155 15.0167 15.1583C16.1555 15.1616 17.9287 15.3144 17.9287 15.3144C19.2988 15.4204 20.703 15.5961 22.1232 15.8435C26.4005 16.5886 30.3162 17.8959 33.4217 19.5465C32.3843 17.6728 31.027 15.6961 29.3718 13.7472L33.3092 10.4831C36.022 13.6773 38.128 17.0612 39.4424 20.2198C40.1031 19.0849 40.7752 18.0502 41.4458 17.1364C42.5169 15.6771 43.6726 14.4036 44.8711 13.5446C45.9819 12.7483 47.7303 11.8968 49.6227 12.5773C51.5152 13.2579 52.3005 15.0204 52.6334 16.3358C52.9926 17.755 53.0494 19.4645 52.9204 21.2626C52.6598 24.8946 51.5927 29.5009 49.8358 34.2698C48.079 39.0387 45.8995 43.2451 43.7361 46.1929C42.6651 47.6522 41.5094 48.9257 40.3109 49.7847C39.2 50.581 37.4517 51.4325 35.5592 50.7519C33.6668 50.0714 32.8815 48.3089 32.5486 46.9934C32.1894 45.5743 32.1326 43.8648 32.2616 42.0667C32.3997 40.1422 32.7642 37.9441 33.3378 35.5933C33.0639 35.6688 32.7862 35.7389 32.5055 35.8039C28.6441 36.6986 23.7039 36.7445 18.5531 35.8472C13.4023 34.9499 8.77596 33.2375 5.45714 31.0919C3.80189 30.0218 2.36376 28.7742 1.37829 27.3641C0.383999 25.9413 -0.244641 24.1995 0.0911176 22.3182C0.426876 20.4369 1.6206 19.0125 3.04746 18.0115C4.46167 17.0194 6.24497 16.333 8.17083 15.8868ZM35.0684 27.2118C35.5313 27.8742 35.5562 28.2742 35.5266 28.4717C35.4616 28.5731 35.3975 28.6387 35.346 28.6814C35.1962 28.8055 34.8366 28.9986 33.9974 28.9315C33.9974 28.9315 31.9069 30.1138 30.4583 30.6C28.9798 31.0963 26.5481 31.4119 26.5481 31.4119C24.3885 31.4607 21.9793 31.2877 19.4457 30.8463C14.8121 30.0391 10.8801 28.5291 8.27143 26.8427C6.96295 25.9968 6.09509 25.176 5.60793 24.4789C5.12958 23.7944 5.11895 23.3901 5.15288 23.2C5.18682 23.0098 5.33677 22.6335 6.02322 22.1519C6.72233 21.6615 7.822 21.1835 9.3444 20.8307C10.9493 20.4588 12.8849 20.2584 15.0378 20.2714C15.0378 20.2714 17.714 20.1878 19.4083 20.4C21.0835 20.6098 23.6284 21.3378 23.6284 21.3378C27.2185 22.1933 30.2594 23.4609 32.4049 24.848C33.7134 25.6939 34.5813 26.5147 35.0684 27.2118ZM40.176 30.7962C41.8173 26.3412 43.7954 22.5856 45.607 20.1173C46.1451 19.3841 46.6382 18.8063 47.0711 18.37C47.3422 18.0967 47.7788 18.2537 47.8086 18.6352C47.8564 19.2443 47.8582 20.0002 47.7934 20.9036C47.5752 23.9448 46.6471 28.078 45.0059 32.533C43.3647 36.9881 41.3865 40.7436 39.575 43.212C39.0369 43.9451 38.5438 44.523 38.1109 44.9593C37.8398 45.2326 37.4032 45.0756 37.3733 44.6941C37.3256 44.0849 37.3238 43.3291 37.3886 42.4257C37.6068 39.3845 38.5348 35.2513 40.176 30.7962Z" fill="black"/>
<path d="M17.2858 0.0295902C15.5415 -0.109753 13.7003 0.223299 12.2191 1.45122L15.523 5.34125C15.6727 5.21713 16.0324 5.0241 16.8715 5.09114C17.7262 5.15941 18.8796 5.49156 20.2753 6.18816C23.0579 7.57693 26.3475 10.1863 29.3718 13.7472L33.3092 10.4831C29.9472 6.52464 26.133 3.42246 22.5929 1.65561C20.8272 0.774395 19.0146 0.167698 17.2858 0.0295902Z" fill="black"/>
<defs>
<linearGradient id="paint0_linear_142_480" x1="12.0962" y1="6.04808" x2="23.0481" y2="28.2788" gradientUnits="userSpaceOnUse">
<stop stop-color="white" stop-opacity="0"/>
<stop offset="0.546875" stop-color="white"/>
<stop offset="1" stop-color="white" stop-opacity="0"/>
</linearGradient>
</defs>
</svg>
