<svg width="132" height="130" viewBox="0 0 132 130" fill="none" xmlns="http://www.w3.org/2000/svg">
<path fill-rule="evenodd" clip-rule="evenodd" d="M42.5029 13.1402C40.4516 12.9726 39.6069 13.4519 39.2781 13.7277C38.9331 14.0173 38.1691 14.9747 37.833 17.4608C37.5041 19.8936 37.6843 23.2027 38.6107 27.186C39.4453 30.7741 40.8374 34.7019 42.7853 38.7319C46.7878 38.9701 50.9221 39.4545 55.112 40.1933C65.6552 42.0524 75.3162 45.3042 83.0005 49.4123C80.6467 44.7268 77.4853 39.7266 73.3486 34.7967C65.8689 25.8828 57.7399 19.354 50.8736 15.8802C47.4291 14.1375 44.5929 13.3109 42.5029 13.1402ZM87.3696 69.3991C87.2697 69.2344 87.1578 69.0617 87.0326 68.8808C85.8397 67.1561 83.7058 65.1132 80.4743 63.0015C74.0328 58.7921 64.3142 55.0165 52.8546 52.9958C52.5093 52.935 52.165 52.8761 51.8217 52.8193C51.9943 53.0298 52.1685 53.2398 52.3443 53.4493C59.3692 61.8213 67.9828 66.6643 75.5375 68.686C79.321 69.6984 82.6996 69.9665 85.3734 69.7122C86.1264 69.6405 86.7895 69.5315 87.3696 69.3991ZM28.71 38.9596C27.5353 35.9485 26.6126 32.9856 25.9487 30.131C24.7776 25.0956 24.3523 20.141 24.9502 15.7191C25.5408 11.3505 27.2357 6.86223 30.9219 3.76917C34.6243 0.662497 39.2223 -0.171187 43.5614 0.18332C47.8619 0.534661 52.3641 2.06522 56.7423 4.28027C65.5215 8.72188 74.9752 16.5108 83.3072 26.4405C90.1951 34.6492 94.8322 43.1055 97.7395 50.5945C99.5483 47.4915 101.397 44.7372 103.248 42.3763C105.846 39.0618 108.683 36.2227 111.69 34.3685C114.636 32.5525 118.719 31.1306 122.988 32.6844C127.756 34.4198 129.677 38.9377 130.475 42.2158C131.342 45.7797 131.461 50.0676 131.126 54.5698C130.448 63.6674 127.785 75.209 123.435 87.1626C119.084 99.1162 113.705 109.669 108.376 117.074C105.739 120.738 102.891 123.946 99.9362 126.119C97.2181 128.117 92.8422 130.343 88.0743 128.608C82.9159 126.731 81.2628 121.467 80.6456 118.259C79.9174 114.475 79.9089 109.86 80.3455 104.996C80.7971 99.9647 81.7622 94.2805 83.1825 88.3216C82.6028 88.5078 82.0138 88.6874 81.4165 88.8599C71.9057 91.608 59.391 92.8496 46.2363 90.5301C33.4709 88.2792 21.9986 83.9865 13.7625 78.6043C9.65512 75.9202 6.0785 72.7864 3.62402 69.2378C1.14742 65.6572 -0.429583 61.2584 0.40968 56.4987C1.24894 51.739 4.23532 48.1449 7.7872 45.6273C11.3074 43.1321 15.7401 41.4106 20.5178 40.2932C23.0724 39.6957 25.8167 39.2497 28.71 38.9596ZM64.6508 78.6038C59.604 78.9304 54.1216 78.7199 48.4937 77.7276C37.0341 75.7069 27.3156 71.9314 20.874 67.7219C17.6425 65.6102 15.5086 63.5673 14.3157 61.8427C13.1449 60.15 13.1376 59.1788 13.2122 58.7561C13.2867 58.3335 13.6257 57.4234 15.3048 56.2332C17.0156 55.0205 19.7196 53.8307 23.4784 52.9516C26.8035 52.1739 30.7058 51.6972 35.0198 51.5842C37.1578 55.0678 39.6165 58.5054 42.3857 61.8056C49.0152 69.7062 56.871 75.2173 64.6508 78.6038ZM100.114 76.8052C96.3723 87.4401 94.023 98.03 93.2935 106.158C92.9641 109.827 92.9898 112.734 93.2541 114.806C94.5204 113.662 96.073 111.914 97.8242 109.48C102.278 103.291 107.156 93.878 111.219 82.7164C115.281 71.5547 117.595 61.2083 118.162 53.604C118.421 50.1252 118.289 47.5304 117.956 45.809C116.796 46.6504 115.268 48.1151 113.478 50.3973C109.573 55.3777 105.228 63.2197 101.346 73.4364C101.184 74.0898 100.956 74.7911 100.628 75.4901C100.483 75.9501 100.309 76.3886 100.114 76.8052ZM119.384 45.0113C119.383 45.0127 119.367 45.0176 119.335 45.0221C119.368 45.0123 119.384 45.01 119.384 45.0113ZM117.483 44.2007C117.451 44.1581 117.437 44.1319 117.438 44.1295C117.439 44.127 117.455 44.1483 117.483 44.2007ZM91.1799 116.273C91.1806 116.271 91.2079 116.259 91.2598 116.247C91.2052 116.27 91.1793 116.276 91.1799 116.273ZM93.8247 117.281C93.8631 117.336 93.879 117.37 93.8774 117.373C93.8758 117.376 93.8566 117.349 93.8247 117.281Z" fill="black" fill-opacity="0.2"/>
<path fill-rule="evenodd" clip-rule="evenodd" d="M42.5029 13.1402C40.4516 12.9726 39.6069 13.4519 39.2781 13.7277C38.9331 14.0173 38.1691 14.9747 37.833 17.4608C37.5041 19.8936 37.6843 23.2027 38.6107 27.186C39.4453 30.7741 40.8374 34.7019 42.7853 38.7319C46.7878 38.9701 50.9221 39.4545 55.112 40.1933C65.6552 42.0524 75.3162 45.3042 83.0005 49.4123C80.6467 44.7268 77.4853 39.7266 73.3486 34.7967C65.8689 25.8828 57.7399 19.354 50.8736 15.8802C47.4291 14.1375 44.5929 13.3109 42.5029 13.1402ZM87.3696 69.3991C87.2697 69.2344 87.1578 69.0617 87.0326 68.8808C85.8397 67.1561 83.7058 65.1132 80.4743 63.0015C74.0328 58.7921 64.3142 55.0165 52.8546 52.9958C52.5093 52.935 52.165 52.8761 51.8217 52.8193C51.9943 53.0298 52.1685 53.2398 52.3443 53.4493C59.3692 61.8213 67.9828 66.6643 75.5375 68.686C79.321 69.6984 82.6996 69.9665 85.3734 69.7122C86.1264 69.6405 86.7895 69.5315 87.3696 69.3991ZM28.71 38.9596C27.5353 35.9485 26.6126 32.9856 25.9487 30.131C24.7776 25.0956 24.3523 20.141 24.9502 15.7191C25.5408 11.3505 27.2357 6.86223 30.9219 3.76917C34.6243 0.662497 39.2223 -0.171187 43.5614 0.18332C47.8619 0.534661 52.3641 2.06522 56.7423 4.28027C65.5215 8.72188 74.9752 16.5108 83.3072 26.4405C90.1951 34.6492 94.8322 43.1055 97.7395 50.5945C99.5483 47.4915 101.397 44.7372 103.248 42.3763C105.846 39.0618 108.683 36.2227 111.69 34.3685C114.636 32.5525 118.719 31.1306 122.988 32.6844C127.756 34.4198 129.677 38.9377 130.475 42.2158C131.342 45.7797 131.461 50.0676 131.126 54.5698C130.448 63.6674 127.785 75.209 123.435 87.1626C119.084 99.1162 113.705 109.669 108.376 117.074C105.739 120.738 102.891 123.946 99.9362 126.119C97.2181 128.117 92.8422 130.343 88.0743 128.608C82.9159 126.731 81.2628 121.467 80.6456 118.259C79.9174 114.475 79.9089 109.86 80.3455 104.996C80.7971 99.9647 81.7622 94.2805 83.1825 88.3216C82.6028 88.5078 82.0138 88.6874 81.4165 88.8599C71.9057 91.608 59.391 92.8496 46.2363 90.5301C33.4709 88.2792 21.9986 83.9865 13.7625 78.6043C9.65512 75.9202 6.0785 72.7864 3.62402 69.2378C1.14742 65.6572 -0.429583 61.2584 0.40968 56.4987C1.24894 51.739 4.23532 48.1449 7.7872 45.6273C11.3074 43.1321 15.7401 41.4106 20.5178 40.2932C23.0724 39.6957 25.8167 39.2497 28.71 38.9596ZM64.6508 78.6038C59.604 78.9304 54.1216 78.7199 48.4937 77.7276C37.0341 75.7069 27.3156 71.9314 20.874 67.7219C17.6425 65.6102 15.5086 63.5673 14.3157 61.8427C13.1449 60.15 13.1376 59.1788 13.2122 58.7561C13.2867 58.3335 13.6257 57.4234 15.3048 56.2332C17.0156 55.0205 19.7196 53.8307 23.4784 52.9516C26.8035 52.1739 30.7058 51.6972 35.0198 51.5842C37.1578 55.0678 39.6165 58.5054 42.3857 61.8056C49.0152 69.7062 56.871 75.2173 64.6508 78.6038ZM100.114 76.8052C96.3723 87.4401 94.023 98.03 93.2935 106.158C92.9641 109.827 92.9898 112.734 93.2541 114.806C94.5204 113.662 96.073 111.914 97.8242 109.48C102.278 103.291 107.156 93.878 111.219 82.7164C115.281 71.5547 117.595 61.2083 118.162 53.604C118.421 50.1252 118.289 47.5304 117.956 45.809C116.796 46.6504 115.268 48.1151 113.478 50.3973C109.573 55.3777 105.228 63.2197 101.346 73.4364C101.184 74.0898 100.956 74.7911 100.628 75.4901C100.483 75.9501 100.309 76.3886 100.114 76.8052ZM119.384 45.0113C119.383 45.0127 119.367 45.0176 119.335 45.0221C119.368 45.0123 119.384 45.01 119.384 45.0113ZM117.483 44.2007C117.451 44.1581 117.437 44.1319 117.438 44.1295C117.439 44.127 117.455 44.1483 117.483 44.2007ZM91.1799 116.273C91.1806 116.271 91.2079 116.259 91.2598 116.247C91.2052 116.27 91.1793 116.276 91.1799 116.273ZM93.8247 117.281C93.8631 117.336 93.879 117.37 93.8774 117.373C93.8758 117.376 93.8566 117.349 93.8247 117.281Z" fill="url(#paint0_linear_174_538)"/>
<path fill-rule="evenodd" clip-rule="evenodd" d="M42.3205 13.0329C40.2692 12.8653 39.4246 13.3446 39.0958 13.6205L30.7395 3.6619C34.4419 0.555227 39.0399 -0.278456 43.3791 0.0760508C47.6795 0.427392 52.1817 1.95795 56.5599 4.173C65.3391 8.61461 74.7928 16.4035 83.1248 26.3332C90.0127 34.5419 94.6498 42.9982 97.5572 50.4872C99.3659 47.3842 101.214 44.6299 103.065 42.269C105.664 38.9546 108.5 36.1155 111.508 34.2612C114.453 32.4452 118.536 31.0233 122.805 32.5771C127.573 34.3125 129.494 38.8304 130.292 42.1085C131.159 45.6724 131.279 49.9603 130.943 54.4625C130.265 63.5602 127.603 75.1018 123.252 87.0554C118.902 99.0089 113.522 109.562 108.194 116.967C105.557 120.631 102.709 123.839 99.7539 126.012C97.0357 128.01 92.6598 130.236 87.892 128.501C82.7335 126.623 81.0805 121.359 80.4632 118.152C79.7351 114.368 79.7265 109.753 80.1631 104.889C80.6147 99.8575 81.5798 94.1732 83.0001 88.2144C82.4204 88.4006 81.8314 88.5801 81.2341 88.7527C71.7233 91.5007 59.2086 92.7423 46.0539 90.4228C33.2885 88.1719 21.8163 83.8792 13.5801 78.497C9.47275 75.8129 5.89613 72.6792 3.44165 69.1305C0.965045 65.55 -0.611956 61.1512 0.227307 56.3915C1.06657 51.6318 4.05295 48.0376 7.60482 45.52C11.125 43.0249 15.5577 41.3034 20.3354 40.1859C29.9157 37.9453 42.1643 37.8352 54.9296 40.0861C65.4728 41.9451 75.1338 45.197 82.8181 49.3051C80.4643 44.6195 77.3029 39.6194 73.1663 34.6895C65.6865 25.7755 57.5575 19.2468 50.6912 15.7729C47.2467 14.0303 44.4106 13.2036 42.3205 13.0329ZM87.9704 71.3358C87.922 70.799 87.6744 69.965 86.8503 68.7735C85.6573 67.0488 83.5234 65.0059 80.292 62.8942C73.8504 58.6848 64.1318 54.9092 52.6722 52.8886C41.2126 50.8679 30.7888 51.0919 23.296 52.8443C19.5372 53.7234 16.8333 54.9133 15.1224 56.1259C13.4433 57.3161 13.1043 58.2262 13.0298 58.6489C12.9553 59.0716 12.9625 60.0427 14.1333 61.7354C15.3262 63.4601 17.4602 65.5029 20.6916 67.6146C27.1332 71.8241 36.8517 75.5997 48.3114 77.6203C59.3816 79.5723 69.8887 78.499 77.6255 76.2636C81.5082 75.1417 84.4754 73.7898 86.388 72.5545C87.1734 72.0472 87.6765 71.6266 87.9704 71.3358ZM99.9312 76.6979C96.19 87.3329 93.8406 97.9227 93.1111 106.051C92.7818 109.72 92.8075 112.627 93.0718 114.699C94.338 113.554 95.8906 111.807 97.6418 109.373C102.096 103.184 106.974 93.7707 111.036 82.6091C115.099 71.4475 117.413 61.1011 117.979 53.4967C118.238 50.0179 118.107 47.4232 117.774 45.7017C116.614 46.5431 115.085 48.0079 113.296 50.2901C109.391 55.2705 105.045 63.1124 101.163 73.3292C101.001 73.9825 100.774 74.6839 100.446 75.3829C100.301 75.8428 100.127 76.2813 99.9312 76.6979ZM119.201 44.9041C119.201 44.9054 119.184 44.9103 119.152 44.9149C119.186 44.905 119.202 44.9027 119.201 44.9041ZM117.3 44.0935C117.268 44.0508 117.255 44.0246 117.256 44.0222C117.257 44.0197 117.273 44.041 117.3 44.0935ZM90.9975 116.166C90.9982 116.164 91.0255 116.152 91.0774 116.14C91.0228 116.163 90.9969 116.169 90.9975 116.166ZM93.6424 117.174C93.6807 117.229 93.6966 117.263 93.695 117.266C93.6934 117.269 93.6742 117.242 93.6424 117.174Z" fill="black"/>
<defs>
<linearGradient id="paint0_linear_174_538" x1="34.0018" y1="12.9991" x2="47.5018" y2="76.4991" gradientUnits="userSpaceOnUse">
<stop/>
<stop offset="0.53125" stop-opacity="0"/>
<stop offset="1"/>
</linearGradient>
</defs>
</svg>
