<svg width="29" height="28" viewBox="0 0 29 28" fill="none" xmlns="http://www.w3.org/2000/svg">
<path fill-rule="evenodd" clip-rule="evenodd" d="M4.47224 8.72215C5.13577 8.56794 5.85748 8.45966 6.6227 8.39891C6.28562 7.70002 6.01383 7.01491 5.81358 6.35767C5.50062 5.3305 5.3419 4.30438 5.43086 3.36771C5.52063 2.42266 5.87733 1.47091 6.68804 0.796751C7.49876 0.122596 8.50651 -0.0602568 9.46123 0.0162456C10.4075 0.0920695 11.3996 0.425158 12.366 0.90896C14.3037 1.879 16.3914 3.58215 18.2315 5.75542C19.7164 7.5091 20.869 9.36694 21.5885 11.1011C21.9501 10.478 22.318 9.90991 22.6851 9.40823C23.2713 8.60702 23.9038 7.90785 24.5598 7.43622C25.1678 6.99907 26.1248 6.53159 27.1606 6.90521C28.1964 7.27883 28.6262 8.24651 28.8085 8.9687C29.0051 9.74785 29.0361 10.6864 28.9655 11.6736C28.8229 13.6677 28.2388 16.1966 27.2772 18.8148C26.3156 21.433 25.1227 23.7424 23.9386 25.3608C23.3524 26.162 22.7198 26.8612 22.0638 27.3328C21.4558 27.7699 20.4989 28.2374 19.4631 27.8638C18.4272 27.4902 17.9974 26.5225 17.8152 25.8003C17.6186 25.0212 17.5875 24.0826 17.6581 23.0954C17.7337 22.0388 17.9332 20.8321 18.2472 19.5414C18.0972 19.5829 17.9453 19.6214 17.7916 19.6571C15.6781 20.1483 12.9742 20.1735 10.1549 19.6808C7.33565 19.1882 4.80345 18.248 2.98692 17.0701C2.08094 16.4826 1.29378 15.7976 0.754395 15.0234C0.210179 14.2423 -0.133902 13.286 0.0498725 12.2531C0.233647 11.2202 0.887023 10.4382 1.66801 9.88867C2.44206 9.34398 3.41813 8.96714 4.47224 8.72215ZM12.109 8.6984C11.3316 8.56256 10.563 8.46609 9.81315 8.40791C9.20916 7.38999 8.76998 6.41575 8.50675 5.5518C8.25935 4.73982 8.18776 4.09202 8.23174 3.62898C8.27492 3.17433 8.41442 3.00059 8.49637 2.93245C8.57832 2.86431 8.77519 2.75833 9.2345 2.79514C9.70228 2.83262 10.3336 3.01497 11.0975 3.39742C12.6206 4.15988 14.4211 5.59245 16.0764 7.54749C16.9824 8.61747 17.7253 9.70271 18.2931 10.7314C16.5933 9.82519 14.4501 9.10749 12.109 8.6984ZM19.1944 14.9398C19.4478 15.3035 19.4614 15.5231 19.4452 15.6315C19.4096 15.6872 19.3746 15.7232 19.3463 15.7467C19.2644 15.8148 19.0675 15.9208 18.6082 15.884C18.1404 15.8465 17.5091 15.6641 16.7452 15.2817C15.4993 14.658 14.0678 13.5859 12.6819 12.1462C12.496 11.9531 12.671 11.6523 12.9328 11.7149C14.8978 12.1845 16.5622 12.8805 17.7366 13.6421C18.4528 14.1065 18.9278 14.5571 19.1944 14.9398ZM9.61119 12.9237C11.1551 14.7471 12.8733 16.2396 14.5309 17.2458C13.3489 17.2725 12.0302 17.1775 10.6434 16.9352C8.10727 16.492 5.95511 15.663 4.5273 14.7372C3.81111 14.2727 3.3361 13.8221 3.06945 13.4394C2.80764 13.0636 2.80181 12.8416 2.82039 12.7372C2.83897 12.6328 2.92104 12.4262 3.29676 12.1619C3.67941 11.8926 4.28131 11.6301 5.11458 11.4365C5.99303 11.2323 7.05246 11.1222 8.23082 11.1294C8.65089 11.7335 9.11229 12.3345 9.61119 12.9237ZM21.99 16.9077C22.8883 14.4618 23.9711 12.4 24.9626 11.0448C25.2571 10.6423 25.527 10.325 25.764 10.0855C25.9124 9.93545 26.1513 10.0216 26.1677 10.2311C26.1938 10.5655 26.1948 10.9805 26.1593 11.4765C26.0399 13.1462 25.5319 15.4154 24.6336 17.8613C23.7353 20.3072 22.6526 22.3691 21.6611 23.7242C21.3665 24.1267 21.0966 24.444 20.8597 24.6835C20.7113 24.8336 20.4723 24.7474 20.456 24.5379C20.4299 24.2035 20.4289 23.7885 20.4643 23.2926C20.5838 21.6228 21.0917 19.3536 21.99 16.9077Z" fill="black"/>
</svg>
